<?xml version="1.0" encoding="UTF-8" standalone="no"?>
<svg
   fill="none"
   viewBox="0 0 128 128"
   version="1.1"
   id="svg1"
   xmlns="http://www.w3.org/2000/svg"
   xmlns:svg="http://www.w3.org/2000/svg">
  <defs
     id="defs1" />
  <style
     id="style1">
        path { fill: #000; }
        @media (prefers-color-scheme: dark) {
            path { fill: #FFF; }
        }
    </style>
  <path
     style="fill:#f57d20;fill-opacity:1;stroke-width:0.0593729"
     d="m 26.387828,115.89677 c -1.290118,-0.17311 -4.04333,-1.61498 -5.874572,-3.0765 -4.1201,-3.28826 -5.869728,-8.18308 -5.088204,-14.234922 0.689987,-5.343048 3.31693,-11.622963 7.684739,-18.370976 4.624771,-7.145001 11.106527,-14.555128 18.031953,-20.614629 l 0.661123,-0.578414 -0.206602,-0.549633 C 41.482619,58.169377 41.087684,57.160587 40.718505,56.229919 35.138998,42.16307 28.182282,30.222962 20.948802,22.298328 c -0.91784,-1.005535 -1.164183,-1.35673 -1.204869,-1.717663 -0.02764,-0.242327 -0.01623,-0.273469 0.121258,-0.336022 0.441647,-0.201209 0.933296,0.141089 2.537603,1.767046 6.935773,7.02923 12.771088,15.013576 18.141547,24.822722 0.962114,1.757286 3.143743,6.108062 3.996725,7.970564 0.336493,0.734743 0.62088,1.34552 0.631936,1.357296 0.01074,0.01141 0.402349,-0.297667 0.869502,-0.687694 3.54527,-2.95967 9.019669,-6.950226 13.891417,-10.126128 l 1.163374,-0.758402 -0.02965,-0.636857 c -0.0364,-0.772593 0.03775,-1.171032 0.32618,-1.750848 0.286005,-0.575247 0.907979,-1.202417 1.446003,-1.458164 1.103794,-0.524691 2.336826,-0.462543 3.310539,0.166772 l 0.368983,0.238482 1.348547,-0.8206 c 0.741701,-0.451352 1.714597,-1.040024 2.161999,-1.308214 l 0.813457,-0.487617 -0.121138,-0.280122 c -0.49348,-1.141314 -0.466252,-2.601513 0.0698,-3.747111 0.727847,-1.555443 2.361104,-2.605 4.071883,-2.61666 0.454797,-0.003 1.278825,0.156535 1.72031,0.333263 0.726616,0.290887 1.645729,1.013372 2.043889,1.606632 0.08759,0.130532 0.09654,0.126305 2.118827,-1.001274 l 2.030857,-1.132364 -0.196826,-0.393991 C 82.158454,30.45552 81.98852,29.695073 81.995266,28.6809 c 0.01119,-1.602325 0.605377,-2.971066 1.785113,-4.108317 1.116084,-1.075915 2.408679,-1.59148 3.990042,-1.59148 1.143312,0 2.009088,0.233361 2.998318,0.808162 0.635782,0.369387 1.624956,1.362055 1.959308,1.966147 0.130647,0.23599 0.257032,0.429695 0.280892,0.430451 0.03434,0.0011 5.019483,-2.531039 5.077403,-2.578857 0.008,-0.0068 -0.0898,-0.253046 -0.21746,-0.547477 -0.46861,-1.080362 -0.65822,-2.000171 -0.65822,-3.192786 0,-2.140176 0.76259,-3.998018 2.256157,-5.496544 1.313371,-1.317715 2.866191,-2.051038 4.779241,-2.257012 1.74673,-0.188062 3.57457,0.283647 5.13556,1.325292 0.56212,0.375118 1.66383,1.481655 2.03925,2.048193 2.32856,3.514108 1.54165,8.143979 -1.80867,10.641357 -0.86019,0.641191 -2.05463,1.165184 -3.19874,1.403283 -0.68824,0.14323 -2.14938,0.144836 -2.86073,0.0032 -1.98187,-0.394753 -3.751611,-1.514182 -4.898808,-3.098685 l -0.12894,-0.178096 -0.37512,0.203771 c -0.8453,0.459172 -4.770192,2.628317 -4.788672,2.646561 -0.01119,0.01085 0.0283,0.228906 0.08725,0.484621 0.163121,0.707744 0.13765,1.834673 -0.05862,2.588907 -0.552466,2.123622 -2.236419,3.751208 -4.385573,4.238786 -0.660583,0.149863 -1.894024,0.136541 -2.556307,-0.02764 -0.948858,-0.235201 -1.792273,-0.675697 -2.554104,-1.333956 l -0.343917,-0.297149 -1.288836,0.781117 c -0.708875,0.429615 -1.649533,1.003692 -2.09038,1.275725 -0.904325,0.558038 -0.825695,0.4173 -0.740801,1.325935 0.119236,1.27647 -0.379769,2.578616 -1.361225,3.552043 -0.859959,0.852903 -1.916956,1.283132 -3.152478,1.283132 -0.973916,0 -1.773267,-0.235585 -2.551016,-0.751818 l -0.325649,-0.216105 -1.530308,1.034717 c -0.841681,0.569111 -1.834432,1.247255 -2.206123,1.507018 l -0.675804,0.472318 0.0095,0.590683 c 0.01677,1.01121 -0.262481,1.723218 -0.942429,2.40314 -0.996381,0.996381 -2.444273,1.2678 -3.700533,0.693693 l -0.308723,-0.141089 -0.445285,0.326045 c -3.314604,2.426827 -8.137644,6.350066 -11.252031,9.152817 -1.031305,0.9281 -3.47896,3.227334 -3.932453,3.693975 l -0.252167,0.259515 0.199186,0.472857 c 0.109538,0.260054 0.433289,1.07402 0.719369,1.808757 3.332319,8.557997 5.692683,17.091046 6.421542,23.214794 0.143979,1.209501 0.145532,2.954634 0.0034,3.62174 -0.540868,2.536728 -2.02031,4.610132 -3.781312,5.299436 -0.635304,0.248662 -0.987505,0.301103 -1.790564,0.266458 -1.317048,-0.05663 -1.950291,-0.388802 -1.949703,-1.022261 5.91e-4,-0.421154 0.162188,-0.605309 1.024482,-1.166016 0.991569,-0.644742 1.510483,-1.600924 1.651263,-3.042693 0.293892,-3.009468 -1.208666,-10.827828 -3.664315,-19.067086 -0.833914,-2.797968 -2.139233,-6.798197 -2.218328,-6.798197 -0.0978,0 -3.028725,3.316801 -4.78473,5.414652 l -1.058693,1.264795 1.719679,0.03034 c 1.657801,0.02899 1.729892,0.03505 2.003327,0.170535 0.503324,0.249201 0.874638,0.830736 0.873797,1.368411 -8.37e-4,0.54188 -0.30697,1.08815 -0.758566,1.35361 l -0.28014,0.164668 -3.026246,0.02965 -3.026248,0.02966 -0.759845,1.009345 c -0.858354,1.140192 -2.050457,2.799571 -2.772494,3.859233 l -0.485462,0.712474 4.975776,0.02966 4.975769,0.02965 0.305687,0.161243 c 1.116454,0.588862 1.124805,2.186792 0.01409,2.740167 l -0.313668,0.156361 H 35.047762 29.07535 l -0.487484,0.824009 c -0.90543,1.530444 -2.684454,4.894166 -2.684454,5.075666 0,0.02091 3.348233,0.03774 7.440518,0.03774 8.173725,0 7.794948,-0.01623 8.248816,0.35894 0.122471,0.101316 0.296185,0.309125 0.385902,0.461869 0.138861,0.236192 0.163187,0.34411 0.163187,0.722947 0,0.382465 -0.02493,0.490113 -0.175867,0.762826 -0.182268,0.329012 -0.494561,0.588459 -0.857154,0.712081 -0.149097,0.05056 -2.337251,0.06882 -8.380071,0.06882 h -8.178248 l -0.277985,0.757001 c -1.737394,4.731494 -2.272284,9.478585 -1.476827,13.106555 0.778686,3.55147 2.708451,6.50192 5.405801,8.26502 0.268007,0.17519 0.545385,0.40013 0.616499,0.49996 0.180111,0.25297 0.213072,0.64178 0.0831,0.98198 -0.318494,0.83397 -1.345453,1.30183 -2.513471,1.1451 z"
     id="path895" />
</svg>
